<svg xmlns="http://www.w3.org/2000/svg" style="display: none;">
	<symbol id="phone" viewBox="0 0 51.413 51.413"><title>old-typical-phone</title><path style="fill:#010002;" d="M25.989,12.274c8.663,0.085,14.09-0.454,14.823,9.148h10.564c0-14.875-12.973-16.88-25.662-16.88 c-12.69,0-25.662,2.005-25.662,16.88h10.482C11.345,11.637,17.398,12.19,25.989,12.274z"/><path style="fill:#010002;" d="M5.291,26.204c2.573,0,4.714,0.154,5.19-2.377c0.064-0.344,0.101-0.734,0.101-1.185H10.46H0 C0,26.407,2.369,26.204,5.291,26.204z"/><path style="fill:#010002;" d="M40.88,22.642h-0.099c0,0.454,0.039,0.845,0.112,1.185c0.502,2.334,2.64,2.189,5.204,2.189 c2.936,0,5.316,0.193,5.316-3.374H40.88z"/><path style="fill:#010002;" d="M35.719,20.078v-1.496c0-0.669-0.771-0.711-1.723-0.711h-1.555c-0.951,0-1.722,0.042-1.722,0.711 v1.289v1h-11v-1v-1.289c0-0.669-0.771-0.711-1.722-0.711h-1.556c-0.951,0-1.722,0.042-1.722,0.711v1.496v1.306 C12.213,23.988,4.013,35.073,3.715,36.415l0.004,8.955c0,0.827,0.673,1.5,1.5,1.5h40c0.827,0,1.5-0.673,1.5-1.5v-9 c-0.295-1.303-8.493-12.383-11-14.987V20.078z M19.177,37.62c-0.805,0-1.458-0.652-1.458-1.458s0.653-1.458,1.458-1.458 s1.458,0.652,1.458,1.458S19.982,37.62,19.177,37.62z M19.177,32.62c-0.805,0-1.458-0.652-1.458-1.458s0.653-1.458,1.458-1.458 s1.458,0.652,1.458,1.458S19.982,32.62,19.177,32.62z M19.177,27.621c-0.805,0-1.458-0.652-1.458-1.458 c0-0.805,0.653-1.458,1.458-1.458s1.458,0.653,1.458,1.458C20.635,26.969,19.982,27.621,19.177,27.621z M25.177,37.62 c-0.805,0-1.458-0.652-1.458-1.458s0.653-1.458,1.458-1.458c0.806,0,1.458,0.652,1.458,1.458S25.983,37.62,25.177,37.62z M25.177,32.62c-0.805,0-1.458-0.652-1.458-1.458s0.653-1.458,1.458-1.458c0.806,0,1.458,0.652,1.458,1.458 S25.983,32.62,25.177,32.62z M25.177,27.621c-0.805,0-1.458-0.652-1.458-1.458c0-0.805,0.653-1.458,1.458-1.458 c0.806,0,1.458,0.653,1.458,1.458C26.635,26.969,25.983,27.621,25.177,27.621z M31.177,37.62c-0.806,0-1.458-0.652-1.458-1.458 s0.652-1.458,1.458-1.458s1.458,0.652,1.458,1.458S31.983,37.62,31.177,37.62z M31.177,32.62c-0.806,0-1.458-0.652-1.458-1.458 s0.652-1.458,1.458-1.458s1.458,0.652,1.458,1.458S31.983,32.62,31.177,32.62z M31.177,27.621c-0.806,0-1.458-0.652-1.458-1.458 c0-0.805,0.652-1.458,1.458-1.458s1.458,0.653,1.458,1.458C32.635,26.969,31.983,27.621,31.177,27.621z"/></symbol>

	<symbol id="basket" viewBox="0 0 45.829 45.829"><title>basket</title><path d="M43.353,18.806h-8.125L29.383,4.724c-0.521-1.262-1.974-1.866-3.229-1.339c-1.263,0.524-1.859,1.974-1.336,3.235 l5.056,12.186H15.952l5.056-12.188c0.523-1.26-0.075-2.709-1.337-3.233c-1.257-0.527-2.707,0.079-3.229,1.341l-5.845,14.08H2.472 C1.105,18.806,0,19.905,0,21.271c0,1.364,1.105,2.464,2.472,2.464h0.852l2.515,13.761c0.543,2.97,3.131,5.138,6.15,5.138h21.85 c3.021,0,5.606-2.168,6.149-5.138l2.516-13.761h0.853c1.366,0,2.473-1.101,2.473-2.464C45.825,19.904,44.72,18.806,43.353,18.806z "/></symbol>
	<symbol id="dollar" viewBox="0 0 484.184 484.184"><title>dollar-symbol</title><path d="M309.43,219.944c-19-10.5-39.2-18.5-59.2-26.8c-11.6-4.8-22.7-10.4-32.5-18.2c-19.3-15.4-15.6-40.4,7-50.3 c6.4-2.8,13.1-3.7,19.9-4.1c26.2-1.4,51.1,3.4,74.8,14.8c11.8,5.7,15.7,3.9,19.7-8.4c4.2-13,7.7-26.2,11.6-39.3 c2.6-8.8-0.6-14.6-8.9-18.3c-15.2-6.7-30.8-11.5-47.2-14.1c-21.4-3.3-21.4-3.4-21.5-24.9c-0.1-30.3-0.1-30.3-30.5-30.3 c-4.4,0-8.8-0.1-13.2,0c-14.2,0.4-16.6,2.9-17,17.2c-0.2,6.4,0,12.8-0.1,19.3c-0.1,19-0.2,18.7-18.4,25.3c-44,16-71.2,46-74.1,94 c-2.6,42.5,19.6,71.2,54.5,92.1c21.5,12.9,45.3,20.5,68.1,30.6c8.9,3.9,17.4,8.4,24.8,14.6c21.9,18.1,17.9,48.2-8.1,59.6 c-13.9,6.1-28.6,7.6-43.7,5.7c-23.3-2.9-45.6-9-66.6-19.9c-12.3-6.4-15.9-4.7-20.1,8.6c-3.6,11.5-6.8,23.1-10,34.7 c-4.3,15.6-2.7,19.3,12.2,26.6c19,9.2,39.3,13.9,60,17.2c16.2,2.6,16.7,3.3,16.9,20.1c0.1,7.6,0.1,15.3,0.2,22.9 c0.1,9.6,4.7,15.2,14.6,15.4c11.2,0.2,22.5,0.2,33.7-0.1c9.2-0.2,13.9-5.2,13.9-14.5c0-10.4,0.5-20.9,0.1-31.3 c-0.5-10.6,4.1-16,14.3-18.8c23.5-6.4,43.5-19,58.9-37.8C386.33,329.544,370.03,253.444,309.43,219.944z"/></symbol>

	<symbol id="search" viewBox="0 0 56.966 56.966"><title>search</title><path d="M55.146,51.887L41.588,37.786c3.486-4.144,5.396-9.358,5.396-14.786c0-12.682-10.318-23-23-23s-23,10.318-23,23 s10.318,23,23,23c4.761,0,9.298-1.436,13.177-4.162l13.661,14.208c0.571,0.593,1.339,0.92,2.162,0.92 c0.779,0,1.518-0.297,2.079-0.837C56.255,54.982,56.293,53.08,55.146,51.887z M23.984,6c9.374,0,17,7.626,17,17s-7.626,17-17,17 s-17-7.626-17-17S14.61,6,23.984,6z"/></symbol><symbol id="like" viewBox="0 0 51.997 51.997"><title>like</title><path d="M51.911,16.242C51.152,7.888,45.239,1.827,37.839,1.827c-4.93,0-9.444,2.653-11.984,6.905 c-2.517-4.307-6.846-6.906-11.697-6.906c-7.399,0-13.313,6.061-14.071,14.415c-0.06,0.369-0.306,2.311,0.442,5.478 c1.078,4.568,3.568,8.723,7.199,12.013l18.115,16.439l18.426-16.438c3.631-3.291,6.121-7.445,7.199-12.014 C52.216,18.553,51.97,16.611,51.911,16.242z M49.521,21.261c-0.984,4.172-3.265,7.973-6.59,10.985L25.855,47.481L9.072,32.25 c-3.331-3.018-5.611-6.818-6.596-10.99c-0.708-2.997-0.417-4.69-0.416-4.701l0.015-0.101C2.725,9.139,7.806,3.826,14.158,3.826 c4.687,0,8.813,2.88,10.771,7.515l0.921,2.183l0.921-2.183c1.927-4.564,6.271-7.514,11.069-7.514 c6.351,0,11.433,5.313,12.096,12.727C49.938,16.57,50.229,18.264,49.521,21.261z"/></symbol>

	<symbol id="add" viewBox="-11 0 469 469.68"><title>add</title><path d="m343.074219 261.679688c-57.4375 0-104 46.5625-104 104s46.5625 104 104 104 104-46.5625 104-104c-.0625-57.410157-46.589844-103.933594-104-104zm8 112v64h-16v-64h-72v-16h72v-72h16v72h72v16zm0 0"/><path d="m343.074219 245.679688c30.273437.011718 59.410156 11.511718 81.523437 32.183593l21.214844-144.183593h-445.472656l37.601562 256h187.535156c-7.207031-35.308594 1.835938-71.992188 24.632813-99.902344 22.792969-27.914063 56.929687-44.105469 92.964844-44.097656zm0 0"/><path d="m156.757812 11.359375-11.363281-11.359375-117.679687 117.679688h22.722656zm0 0"/><path d="m418.4375 117.679688-117.679688-117.679688-11.363281 11.359375 106.320313 106.320313zm0 0"/></symbol>

	<symbol id="facebook" viewBox="0 0 430.113 430.114"><title>facebook-letter-logo</title><path id="Facebook" d="M158.081,83.3c0,10.839,0,59.218,0,59.218h-43.385v72.412h43.385v215.183h89.122V214.936h59.805 c0,0,5.601-34.721,8.316-72.685c-7.784,0-67.784,0-67.784,0s0-42.127,0-49.511c0-7.4,9.717-17.354,19.321-17.354 c9.586,0,29.818,0,48.557,0c0-9.859,0-43.924,0-75.385c-25.016,0-53.476,0-66.021,0C155.878-0.004,158.081,72.48,158.081,83.3z"/></symbol>

	<symbol id="twitter" viewBox="0 -47 512.00203 512"><title>twitter</title><path d="m191.011719 419.042969c-22.140625 0-44.929688-1.792969-67.855469-5.386719-40.378906-6.335938-81.253906-27.457031-92.820312-33.78125l-30.335938-16.585938 32.84375-10.800781c35.902344-11.804687 57.742188-19.128906 84.777344-30.597656-27.070313-13.109375-47.933594-36.691406-57.976563-67.175781l-7.640625-23.195313 6.265625.957031c-5.941406-5.988281-10.632812-12.066406-14.269531-17.59375-12.933594-19.644531-19.78125-43.648437-18.324219-64.21875l1.4375-20.246093 12.121094 4.695312c-5.113281-9.65625-8.808594-19.96875-10.980469-30.777343-5.292968-26.359376-.863281-54.363282 12.476563-78.851563l10.558593-19.382813 14.121094 16.960938c44.660156 53.648438 101.226563 85.472656 168.363282 94.789062-2.742188-18.902343-.6875-37.144531 6.113281-53.496093 7.917969-19.039063 22.003906-35.183594 40.722656-46.691407 20.789063-12.777343 46-18.96875 70.988281-17.433593 26.511719 1.628906 50.582032 11.5625 69.699219 28.746093 9.335937-2.425781 16.214844-5.015624 25.511719-8.515624 5.59375-2.105469 11.9375-4.496094 19.875-7.230469l29.25-10.078125-19.074219 54.476562c1.257813-.105468 2.554687-.195312 3.910156-.253906l31.234375-1.414062-18.460937 25.230468c-1.058594 1.445313-1.328125 1.855469-1.703125 2.421875-1.488282 2.242188-3.339844 5.03125-28.679688 38.867188-6.34375 8.472656-9.511718 19.507812-8.921875 31.078125 2.246094 43.96875-3.148437 83.75-16.042969 118.234375-12.195312 32.625-31.09375 60.617187-56.164062 83.199219-31.023438 27.9375-70.582031 47.066406-117.582031 56.847656-23.054688 4.796875-47.8125 7.203125-73.4375 7.203125zm0 0"/></symbol>

	<symbol id="google" viewBox="0 0 475.092 475.092"><title>google-plus-symbol</title><path d="M273.372,302.498c-5.041-6.762-10.608-13.045-16.7-18.842c-6.091-5.804-12.183-11.088-18.271-15.845 c-6.092-4.757-11.659-9.329-16.702-13.709c-5.042-4.374-9.135-8.945-12.275-13.702c-3.14-4.757-4.711-9.61-4.711-14.558 c0-6.855,2.19-13.278,6.567-19.274c4.377-5.996,9.707-11.799,15.986-17.417c6.28-5.617,12.559-11.753,18.844-18.415 c6.276-6.665,11.604-15.465,15.985-26.412c4.373-10.944,6.563-23.458,6.563-37.542c0-16.75-3.713-32.835-11.136-48.25 c-7.423-15.418-17.89-27.412-31.405-35.976h38.54L303.2,0H178.441c-17.699,0-35.498,1.906-53.384,5.72 c-26.453,5.9-48.723,19.368-66.806,40.397C40.171,67.15,31.129,90.99,31.129,117.637c0,28.171,10.138,51.583,30.406,70.233 c20.269,18.649,44.585,27.978,72.945,27.978c5.71,0,12.371-0.478,19.985-1.427c-0.381,1.521-1.043,3.567-1.997,6.136 s-1.715,4.62-2.286,6.14c-0.57,1.521-1.047,3.375-1.425,5.566c-0.382,2.19-0.571,4.428-0.571,6.71 c0,12.563,6.086,26.744,18.271,42.541c-14.465,0.387-28.737,1.67-42.825,3.86c-14.084,2.19-28.833,5.616-44.252,10.28 c-15.417,4.661-29.217,11.42-41.396,20.27c-12.182,8.854-21.317,19.366-27.408,31.549C3.533,361.559,0.01,374.405,0.01,386.017 c0,12.751,2.857,24.314,8.565,34.69c5.708,10.369,13.035,18.842,21.982,25.406c8.945,6.57,19.273,12.083,30.978,16.562 c11.704,4.47,23.315,7.659,34.829,9.562c11.516,1.903,22.888,2.854,34.119,2.854c51.007,0,90.981-12.464,119.909-37.397 c26.648-23.223,39.971-50.062,39.971-80.517c0-10.855-1.57-20.984-4.712-30.409C282.51,317.337,278.42,309.254,273.372,302.498z M163.311,198.722c-9.707,0-18.937-2.475-27.694-7.426c-8.757-4.95-16.18-11.374-22.27-19.273 c-6.088-7.898-11.418-16.796-15.987-26.695c-4.567-9.896-7.944-19.792-10.135-29.692c-2.19-9.895-3.284-19.318-3.284-28.265 c0-18.271,4.854-33.974,14.562-47.108c9.705-13.134,23.411-19.701,41.112-19.701c12.563,0,23.935,3.899,34.118,11.704 c10.183,7.804,18.177,17.701,23.984,29.692c5.802,11.991,10.277,24.407,13.417,37.257c3.14,12.847,4.711,24.983,4.711,36.403 c0,19.036-4.139,34.317-12.419,45.833C195.144,192.964,181.775,198.722,163.311,198.722z M242.251,413.123 c-5.23,8.949-12.319,15.94-21.267,20.981c-8.946,5.048-18.509,8.758-28.693,11.14c-10.183,2.385-20.889,3.572-32.12,3.572 c-12.182,0-24.27-1.431-36.258-4.284c-11.99-2.851-23.459-7.187-34.403-12.991c-10.944-5.8-19.795-13.798-26.551-23.982 c-6.757-10.184-10.135-21.744-10.135-34.69c0-11.419,2.568-21.601,7.708-30.55c5.142-8.945,11.709-16.084,19.702-21.408 c7.994-5.332,17.319-9.713,27.979-13.131c10.66-3.433,20.937-5.808,30.833-7.139c9.895-1.335,19.985-1.995,30.262-1.995 c6.283,0,11.043,0.191,14.277,0.567c1.143,0.767,4.043,2.759,8.708,5.996s7.804,5.428,9.423,6.57 c1.615,1.137,4.567,3.326,8.85,6.563c4.281,3.237,7.327,5.661,9.135,7.279c1.803,1.618,4.421,4.045,7.849,7.279 c3.424,3.237,5.948,6.043,7.566,8.422c1.615,2.378,3.616,5.28,5.996,8.702c2.38,3.433,4.043,6.715,4.998,9.855 c0.948,3.142,1.854,6.567,2.707,10.277c0.855,3.72,1.283,7.569,1.283,11.57C250.105,393.713,247.487,404.182,242.251,413.123z"/><polygon points="401.998,73.089 401.998,0 365.449,0 365.449,73.089 292.358,73.089 292.358,109.636 365.449,109.636 365.449,182.725 401.998,182.725 401.998,109.636 475.081,109.636 475.081,73.089 "/></symbol>

	<symbol id="envelope" viewBox="0 0 14 14"><title>close-envelope</title><path style="fill:#030104;" d="M7,9L5.268,7.484l-4.952,4.245C0.496,11.896,0.739,12,1.007,12h11.986 c0.267,0,0.509-0.104,0.688-0.271L8.732,7.484L7,9z"/><path style="fill:#030104;" d="M13.684,2.271C13.504,2.103,13.262,2,12.993,2H1.007C0.74,2,0.498,2.104,0.318,2.273L7,8 L13.684,2.271z"/><polygon style="fill:#030104;" points="0,2.878 0,11.186 4.833,7.079 "/><polygon style="fill:#030104;" points="9.167,7.079 14,11.186 14,2.875 "/></symbol>

	<symbol id="location" viewBox="0 0 430.114 430.114"><title>facebook-placeholder-for-locate-places-on-maps</title><path id="Facebook_Places" d="M356.208,107.051c-1.531-5.738-4.64-11.852-6.94-17.205C321.746,23.704,261.611,0,213.055,0 C148.054,0,76.463,43.586,66.905,133.427v18.355c0,0.766,0.264,7.647,0.639,11.089c5.358,42.816,39.143,88.32,64.375,131.136 c27.146,45.873,55.314,90.999,83.221,136.106c17.208-29.436,34.354-59.259,51.17-87.933c4.583-8.415,9.903-16.825,14.491-24.857 c3.058-5.348,8.9-10.696,11.569-15.672c27.145-49.699,70.838-99.782,70.838-149.104v-20.262 C363.209,126.938,356.581,108.204,356.208,107.051z M214.245,199.193c-19.107,0-40.021-9.554-50.344-35.939 c-1.538-4.2-1.414-12.617-1.414-13.388v-11.852c0-33.636,28.56-48.932,53.406-48.932c30.588,0,54.245,24.472,54.245,55.06 C270.138,174.729,244.833,199.193,214.245,199.193z"/></symbol>

	<symbol id="open-envelope" viewBox="0 0 60 60"><title>envelope</title><path d="M32.543,0.998L32.543,0.998c-1.426-1.326-3.659-1.329-5.086,0L0,26.561v1.728v29.418v2.291h60v-2.291V28.288v-1.728 L32.543,0.998z M20.047,43.229L2,56.979V29.016l18.047,13.75C20.028,42.843,20,42.915,20,42.997S20.028,43.152,20.047,43.229z M22.337,43.997h15.325l18.375,14H3.963L22.337,43.997z M39.65,42.997L58,29.017v27.961L39.65,42.997z M28.82,2.462 c0.662-0.615,1.698-0.615,2.36,0l0-0.001l26.282,24.469c-0.03,0.02-0.065,0.031-0.094,0.053L37.663,41.997H22.337L2.632,26.984 c-0.029-0.022-0.064-0.033-0.094-0.053L28.82,2.462z"/></symbol>

	<symbol id="envelope-blue" viewBox="0 0 0.569in 0.611in"><title>envelope-blue</title>
	<defs>
	<filter id="Filter_0">
	    <feFlood flood-color="rgb(89, 183, 194)" flood-opacity="0.9" result="floodOut" />
	    <feComposite operator="atop" in="floodOut" in2="SourceGraphic" result="compOut" />
	    <feBlend mode="normal" in="compOut" in2="SourceGraphic" />
	</filter>

	</defs>
	<g filter="url(#Filter_0)">
	<path fill-rule="evenodd"  fill="rgb(255, 255, 255)"
	 d="M27.389,27.617 L40.993,16.004 L40.993,43.976 L27.389,27.617 ZM14.548,26.382 L0.162,14.529 L20.500,0.016 L40.891,14.529 L26.560,26.333 L14.548,26.382 ZM0.006,43.976 L0.006,16.004 L13.611,27.617 L0.006,43.976 ZM25.763,27.903 L39.473,43.991 L1.581,43.991 L15.168,27.811 L25.763,27.903 Z"/>
	</g>
	</symbol>
	<symbol id="wrong" viewBox="0 0 180.607 180.607"><title>wrong</title><path d="M180.607,10.607l-79.696,79.697l79.696,79.697L170,180.607l-79.696-79.696l-79.696,79.696L0,170.001l79.696-79.697L0,10.607 L10.607,0.001l79.696,79.696L170,0.001L180.607,10.607z"/></symbol>
	<symbol id="next" viewBox="0 0 477.175 477.175"><title>next</title><path d="M360.731,229.075l-225.1-225.1c-5.3-5.3-13.8-5.3-19.1,0s-5.3,13.8,0,19.1l215.5,215.5l-215.5,215.5 c-5.3,5.3-5.3,13.8,0,19.1c2.6,2.6,6.1,4,9.5,4c3.4,0,6.9-1.3,9.5-4l225.1-225.1C365.931,242.875,365.931,234.275,360.731,229.075z "/></symbol><symbol id="back" viewBox="0 0 477.175 477.175"><title>back</title><path d="M145.188,238.575l215.5-215.5c5.3-5.3,5.3-13.8,0-19.1s-13.8-5.3-19.1,0l-225.1,225.1c-5.3,5.3-5.3,13.8,0,19.1l225.1,225 c2.6,2.6,6.1,4,9.5,4s6.9-1.3,9.5-4c5.3-5.3,5.3-13.8,0-19.1L145.188,238.575z"/></symbol>
	
</svg>